<?xml version="1.0" encoding="UTF-8"?><svg id="Capa_1" xmlns="http://www.w3.org/2000/svg" viewBox="0 0 1745.795 533.953"><defs><style>.cls-1{fill:#7a52ff;stroke-width:0px;}</style></defs><path class="cls-1" d="M508.518,243.153l-78.178-102.173c-3.819-4.99-11.435-4.99-15.254-.039l-42.102,54.517c-2.605,3.372-2.566,8.05.1,11.403l38.284,48.046c5.469,6.861,5.469,17.99,0,24.851l-38.721,48.611c-2.665,3.353-2.705,8.031-.1,11.403l41.963,54.323c3.818,4.95,11.435,4.95,15.254-.039l78.754-102.934c10.103-13.196,10.103-34.773,0-47.968Z"/><path class="cls-1" d="M412.17,118.782c-.009-.01-.03-.028-.039-.038-4.119-4.644-8.716-7.371-13.653-7.371h-80.19c-2.123,0-4.267.447-6.311,1.342-1.965.856-3.974,2.007-5.577,3.812-42.436,47.815-224.311,291.073-224.311,291.073-3.394,4.396-2.084,10.367,1.885,13.246q0,.02.02,0c1.429,1.07,3.215,1.712,5.239,1.731h79.648c2.365,0,4.73-.545,6.956-1.656.02.019.039,0,.06-.019.059-.02.119-.039.179-.078,2.007-.877,3.935-2.182,5.664-3.935l.08-.078c.695-.682,1.351-1.441,1.987-2.24l217.595-281.989c3.833-4.791,8.772-7.206,13.72-7.206h2.233s-3.784-5.032-5.187-6.596Z"/><path class="cls-1" d="M413.256,408.574c-4.821,0-9.642-2.353-13.36-7.021l-29.599-38.182-54.431-70.475c-.348-.456-.859-1.082-1.191-1.512-3.972-5.143-12.279-5.136-16.336.096l-38.088,49.11c-3.372,4.348-3.425,9.763.706,15.155l45.462,59.433c3.775,4.934,8.732,7.401,13.688,7.401,0,0,77.796.001,77.835,0,.932-.038,1.878-.247,2.788-.513,3.543-.967,6.912-3.245,9.661-6.831l5.247-6.66h-2.382Z"/><path class="cls-1" d="M662.017,174.877c0-7.386,5.988-13.374,13.374-13.374h8.571c8.557,0,12.837,3.793,12.837,11.366v22.487c3.365-7.309,8.01-13.804,14.234-19.491,5.185-4.87,11.995-9.4,20.425-13.599,8.424-4.193,18.865-6.294,31.312-6.294,13.226,0,25.152,2.64,35.788,7.916,10.63,5.28,19.707,12.658,27.232,22.127,7.519,9.479,13.287,20.776,17.31,33.903,4.017,13.13,6.031,27.678,6.031,43.643,0,16.243-2.207,30.995-6.613,44.254-4.413,13.266-10.637,24.566-18.671,33.903-8.044,9.337-17.506,16.583-28.4,21.721-10.89,5.138-22.695,7.715-35.399,7.715-11.416,0-20.944-1.9-28.59-5.686-7.655-3.786-13.945-7.979-18.868-12.585-5.466-4.92-9.284-10.712-12.605-17.38-.026-.052-.127,98.58-.127,98.58,0,8.931-4.196,13.398-12.493,13.398h-11.97c-7.388,0-13.377-5.989-13.377-13.377V174.877ZM698.48,265.603c0,9.188,1.28,18.103,3.852,26.747,2.563,8.651,6.28,16.352,11.144,23.1,4.861,6.758,10.87,12.229,18.034,16.414,7.157,4.192,15.465,6.283,24.923,6.283,8.107,0,15.735-1.623,22.898-4.865,7.154-3.242,13.436-7.965,18.845-14.185,5.399-6.21,9.657-13.842,12.764-22.895,3.103-9.05,4.663-19.386,4.663-31.005,0-11.075-1.421-21.137-4.258-30.19-2.836-9.05-6.824-16.751-11.955-23.1-5.135-6.345-11.283-11.279-18.439-14.795-7.16-3.506-14.93-5.267-23.301-5.267-7.84,0-15.267,1.418-22.292,4.255-7.028,2.836-13.311,7.233-18.845,13.172-5.541,5.946-9.927,13.575-13.169,22.898-3.242,9.32-4.865,20.464-4.865,33.432Z"/><path class="cls-1" d="M903.553,93.721c0-7.386,5.988-13.374,13.374-13.374h13.831c7.386,0,13.374,5.988,13.374,13.374v211.953c0,5.673.534,10.27,1.609,13.779,1.071,3.516,2.549,6.217,4.429,8.107,1.874,1.893,3.889,3.176,6.038,3.849,2.146.676,4.292,1.151,6.441,1.418,2.952.544,5.435,1.692,7.45,3.443,2.012,1.761,3.017,4.528,3.017,8.308v9.729c0,4.324-1.028,7.698-3.085,10.132-2.06,2.431-5.698,3.648-10.91,3.648-5.49,0-11.523-.61-18.109-1.824-6.586-1.217-12.625-3.783-18.112-7.701-5.494-3.915-10.086-9.657-13.791-17.226-3.702-7.559-5.554-17.829-5.554-30.797V93.721Z"/><path class="cls-1" d="M1011.951,415.915c2.695-.811,5.534-.811,8.509,0,2.16.811,4.522,1.755,7.091,2.836,2.566,1.078,5.607,1.623,9.119,1.623,8.37,0,15.534-3.11,21.48-9.324,5.94-6.217,10.537-13.374,13.779-21.477l10.132-23.505-79.434-187.234c-2.164-4.591-2.229-8.308-.201-11.144,2.025-2.836,5.471-4.255,10.333-4.255h15.808c7.559,0,12.562,3.512,14.993,10.537l55.929,148.327,53.9-147.925c2.431-7.292,7.427-10.94,14.993-10.94h14.591c4.861,0,8.308,1.418,10.333,4.255,2.028,2.836,2.091,6.553.204,11.144l-90.374,225.733c-6.22,16.213-15.197,28.433-26.952,36.678-11.751,8.239-24.923,12.361-39.514,12.361-5.946,0-11.283-.749-16.009-2.229-4.729-1.487-8.852-2.906-12.358-4.255-3.789-1.623-6.151-4.053-7.094-7.295-.95-3.242-.607-6.623,1.013-10.132l3.242-6.89c1.623-3.786,3.783-6.078,6.487-6.89Z"/><path class="cls-1" d="M1253.297,196.284h-13.747c-8.875,0-13.305-4.575-13.305-13.721v-5.754c0-7.386,5.988-13.374,13.374-13.374h13.678v-44.595c0-7.386,5.988-13.374,13.374-13.374h13.831c7.386,0,13.374,5.988,13.374,13.374v46.527h33.001c7.386,0,13.374,5.988,13.374,13.374v4.629c0,8.608-4.092,12.914-12.267,12.914h-34.108v91.185c0,9.726,1.326,17.565,3.983,23.505,2.651,5.946,5.905,10.537,9.756,13.779,3.847,3.242,7.967,5.468,12.349,6.685,4.379,1.217,8.424,1.962,12.148,2.229,5.306.544,8.958,1.761,10.952,3.648,1.99,1.893,2.985,5.135,2.985,9.726v8.509c0,8.918-5.426,13.377-16.272,13.377-10.309,0-20.072-1.491-29.289-4.459-9.223-2.972-17.291-7.562-24.207-13.779-6.916-6.214-12.478-14.046-16.679-23.505-4.208-9.456-6.303-20.669-6.303-33.637v-97.263Z"/><path class="cls-1" d="M1404.015,107.551v-13.831c0-7.386,5.988-13.374,13.374-13.374h13.831c7.386,0,13.374,5.988,13.374,13.374v13.831c0,7.386-5.988,13.374-13.374,13.374h-13.831c-7.386,0-13.374-5.988-13.374-13.374ZM1417.389,163.435h13.831c7.386,0,13.374,5.988,13.374,13.374v178.075c0,7.386-5.988,13.374-13.374,13.374h-13.831c-7.386,0-13.374-5.988-13.374-13.374v-178.075c0-7.386,5.988-13.374,13.374-13.374Z"/><path class="cls-1" d="M1555.18,263.012l-55.86-83.386c-2.975-4.586-3.581-8.43-1.822-11.536,1.753-3.1,5.323-4.655,10.726-4.655h15.384c7.013,0,12.142,3.103,15.381,9.309l40.074,65.172,40.074-65.172c3.505-6.206,8.766-9.309,15.789-9.309h14.975c5.396,0,8.97,1.555,10.726,4.655,1.753,3.106,1.146,6.951-1.822,11.536l-55.454,83.386,59.503,89.055c2.968,4.592,3.574,8.436,1.822,11.536-1.759,3.106-5.33,4.655-10.726,4.655h-14.573c-7.02,0-12.281-3.1-15.786-9.309l-44.533-70.437-44.117,70.437c-3.508,6.21-8.772,9.309-15.786,9.309h-14.573c-5.402,0-8.973-1.548-10.726-4.655-1.759-3.1-1.153-6.944,1.822-11.536l59.503-89.055Z"/></svg>