<?xml version="1.0" encoding="UTF-8" standalone="no"?>
<svg
   width="200"
   height="200"
   fill="none"
   viewBox="0 0 200 200"
   version="1.1"
   id="svg2"
   sodipodi:docname="shape3.svg"
   xmlns:inkscape="http://www.inkscape.org/namespaces/inkscape"
   xmlns:sodipodi="http://sodipodi.sourceforge.net/DTD/sodipodi-0.dtd"
   xmlns="http://www.w3.org/2000/svg"
   xmlns:svg="http://www.w3.org/2000/svg">
  <sodipodi:namedview
     id="namedview2"
     pagecolor="#ffffff"
     bordercolor="#666666"
     borderopacity="1.0"
     inkscape:showpageshadow="2"
     inkscape:pageopacity="0.0"
     inkscape:pagecheckerboard="0"
     inkscape:deskcolor="#d1d1d1" />
  <path
     fill="url(#paint0_linear_104_86)"
     fill-rule="evenodd"
     d="m 110,0 c 5.523,0 10,4.477 10,10 v 17.574 c 0,8.909 10.771,13.37 17.071,7.07 l 12.426,-12.426 c 3.906,-3.905 10.237,-3.905 14.143,0 l 14.142,14.142 c 3.905,3.906 3.905,10.237 0,14.142 L 165.355,62.93 c -6.299,6.3 -1.838,17.071 7.071,17.071 H 190 c 5.523,0 10,4.477 10,10 v 20 c 0,5.523 -4.477,10 -10,10 h -17.574 c -8.909,0 -13.37,10.771 -7.071,17.071 l 12.427,12.426 c 3.905,3.906 3.905,10.237 0,14.143 l -14.142,14.142 c -3.906,3.905 -10.237,3.905 -14.143,0 L 137.071,165.356 C 130.771,159.057 120,163.518 120,172.427 V 190 c 0,5.523 -4.477,10 -10,10 H 90 c -5.523,0 -10,-4.477 -10,-10 v -17.574 c 0,-8.909 -10.771,-13.37 -17.071,-7.071 l -12.427,12.427 c -3.905,3.905 -10.236,3.905 -14.142,0 L 22.218,163.64 c -3.905,-3.906 -3.905,-10.237 0,-14.143 L 34.645,137.071 C 40.945,130.771 36.483,120 27.574,120 H 10 C 4.477,120 0,115.523 0,110 V 90 C 0,84.477 4.477,80 10,80 h 17.574 c 8.909,0 13.37,-10.771 7.07,-17.071 L 22.219,50.502 c -3.905,-3.905 -3.905,-10.236 0,-14.142 L 36.36,22.218 c 3.906,-3.905 10.237,-3.905 14.142,0 L 62.93,34.645 c 6.3,6.3 17.071,1.838 17.071,-7.071 V 10 c 0,-5.523 4.477,-10 10,-10 h 20 z m -10,150 c 27.614,0 50,-22.386 50,-50 0,-27.614 -22.386,-50 -50,-50 -27.614,0 -50,22.386 -50,50 0,27.614 22.386,50 50,50 z"
     clip-rule="evenodd"
     id="path1"
     style="fill:#f2f2f2" />
  <defs
     id="defs2" />
</svg>
