<?xml version="1.0" encoding="UTF-8" standalone="no"?>
<svg
   id="Capa_1"
   x="0"
   y="0"
   version="1.1"
   viewBox="0 0 511.99931 469.94393"
   width="200.00012"
   height="183.5722"
   sodipodi:docname="shape2.svg"
   inkscape:version="1.3.2 (091e20ef0f, 2023-11-25, custom)"
   xmlns:inkscape="http://www.inkscape.org/namespaces/inkscape"
   xmlns:sodipodi="http://sodipodi.sourceforge.net/DTD/sodipodi-0.dtd"
   xmlns="http://www.w3.org/2000/svg"
   xmlns:svg="http://www.w3.org/2000/svg">
  <sodipodi:namedview
     id="namedview2"
     pagecolor="#ffffff"
     bordercolor="#666666"
     borderopacity="1.0"
     inkscape:showpageshadow="2"
     inkscape:pageopacity="0.0"
     inkscape:pagecheckerboard="0"
     inkscape:deskcolor="#d1d1d1"
     inkscape:zoom="5.71"
     inkscape:cx="99.912434"
     inkscape:cy="100"
     inkscape:window-width="2560"
     inkscape:window-height="1349"
     inkscape:window-x="2560"
     inkscape:window-y="0"
     inkscape:window-maximized="1"
     inkscape:current-layer="Capa_1" />
  <path
     d="m 498.52331,225.26336 c 37.941,-67.923 -8.514,-149.498997 -85.88,-157.203997 l -28.232,-2.813 c -20.59,-2.053 -38.982,-10.974 -54.263,-28.128 -53.185,-59.695 -152.219,-44.9540005 -184.82,26.764 -7.94,17.466 -22.298,31.438 -40.428,39.343997 l -39.772999,17.34 c -63.3989995,27.64 -84.894,104.334 -44.848,159.183 l 25.236,34.563 c 5.481,7.508 9.482,15.807 11.893,24.666 l 12.532,46.073 c 17.167,63.115 88.754999,97.22 151.240999,70.693 l 5.35,-2.271 c 15.901,-6.751 33.992,-8.387 50.932,-4.616 l 82.048,18.269 c 79.933,17.798 150.39,-51.574 132.54,-127.825 l -10.384,-44.351 c -4.203,-17.953 -1.524,-36.78 7.544,-53.012 z"
     fill="url(&quot;#SvgjsLinearGradient1038&quot;)"
     id="path1"
     style="fill:#f9f9f9" />
  <defs
     id="defs2" />
</svg>
